<?xml version="1.0" encoding="UTF-8"?>
<svg id="Layer_1" data-name="Layer 1" xmlns="http://www.w3.org/2000/svg" viewBox="0 0 169.43 28.22">
  <defs>
    <style>
      .cls-1, .cls-2 {
        fill: #fff;
      }

      .cls-2 {
        fill-rule: evenodd;
      }
    </style>
  </defs>
  <path class="cls-1" d="M6.63,22.66v-6.8L0,5.96h2.15l5.46,8.28,5.44-8.28h2.08l-6.66,9.97v6.73h-1.84ZM13.71,22.66l6.92-16.7h2.22l6.87,16.7h-2l-2.1-5.25h-7.87l-2.12,5.25h-1.91ZM18.39,15.84h6.59l-3.29-8.18-3.29,8.18ZM40.11,22.93c-1.21,0-2.34-.21-3.39-.64-1.05-.45-1.97-1.06-2.77-1.84-.8-.8-1.42-1.71-1.86-2.74-.43-1.05-.64-2.18-.64-3.39s.21-2.33.64-3.36c.45-1.05,1.07-1.96,1.86-2.74.8-.8,1.72-1.41,2.77-1.84,1.05-.45,2.18-.67,3.39-.67.87,0,1.71.11,2.51.33.81.21,1.56.52,2.24.93.7.4,1.32.89,1.86,1.48l-1.22,1.29c-.65-.75-1.46-1.32-2.41-1.72-.95-.41-1.95-.62-2.98-.62-.97,0-1.87.17-2.7.52-.83.35-1.55.84-2.17,1.48-.6.62-1.08,1.35-1.43,2.2-.33.83-.5,1.73-.5,2.72s.17,1.88.5,2.72c.35.84.84,1.58,1.46,2.22.62.62,1.34,1.11,2.17,1.46.84.35,1.75.52,2.72.52,1.03,0,2.02-.2,2.96-.6.94-.41,1.73-.98,2.36-1.69l1.19,1.24c-.56.57-1.19,1.07-1.88,1.48-.68.41-1.42.73-2.22.95-.8.21-1.61.31-2.46.31ZM50.89,22.66V5.96h1.84v7.47h9.71v-7.47h1.84v16.7h-1.84v-7.59h-9.71v7.59h-1.84ZM73.98,22.66V7.61h-6.04v-1.65h13.91v1.65h-6.04v15.06h-1.84Z"/>
  <path class="cls-1" d="M92.15,22.66l-4.44-16.7h1.1l3.91,14.89,4.39-14.89h1.1l4.32,14.96,3.94-14.96h1.05l-4.46,16.7h-1.05l-4.37-15.1-4.44,15.1h-1.05ZM108.58,22.66l6.97-16.7h1.36l6.94,16.7h-1.19l-2.31-5.65h-8.28l-2.34,5.65h-1.15ZM112.47,16.03h7.47l-3.72-9.04-3.75,9.04ZM129.41,22.66v-6.97l-6.54-9.73h1.31l5.8,8.73,5.82-8.73h1.26l-6.56,9.78v6.92h-1.1Z"/>
  <path class="cls-2" d="M85.63,28.22h82.86c.94,0,.94,0,.94-.91V.92c0-.12,0-.22,0-.31,0-.32,0-.47-.07-.55-.07-.07-.22-.07-.51-.06-.09,0-.2,0-.32,0h-82.91v1.14c16.57.02,37.93.02,54.17,0,.74,0,.91.2.91.91-.02,8.02-.02,16.03-.02,24.05v.36c.02.39-.15.56-.55.54-.35-.01-.7,0-1.05,0-.17,0-.35,0-.52,0-15.83-.01-36.77-.01-52.94,0v1.22ZM160.53,16.45c.75-1.1,1.1-2.35,1.1-4.23.03-3.27-3.21-6.54-7.28-6.37-4.35.18-7.63,4.46-6.45,8.63,1.31,4.66,6.44,6.64,10.58,4.06.43-.27.66-.17.96.14.5.5,1,1,1.5,1.5h0c.73.72,1.46,1.44,2.16,2.18.45.46.72.27,1.02-.07.05-.06.11-.12.17-.17.27-.25.51-.49.02-.94-.69-.64-1.35-1.31-2.02-1.98-.54-.54-1.08-1.08-1.63-1.61-.38-.37-.48-.63-.15-1.12ZM150.27,9.81c-.58.87-.89,1.88-.9,2.93,0,.69.13,1.38.4,2.02.26.64.65,1.22,1.15,1.71.49.49,1.08.88,1.72,1.14.64.26,1.34.4,2.03.39,1.05,0,2.07-.31,2.94-.89.87-.58,1.55-1.4,1.95-2.36.4-.96.51-2.02.3-3.04-.2-1.02-.71-1.96-1.45-2.7-.74-.74-1.68-1.24-2.71-1.44-1.03-.2-2.09-.1-3.06.3-.97.4-1.79,1.07-2.38,1.94Z"/>
</svg>